<svg width="1400" height="760" viewBox="0 0 1400 760" fill="none" xmlns="http://www.w3.org/2000/svg">
<defs>
  <radialGradient id="bgNebula" cx="50%" cy="45%" r="75%">
    <stop offset="0%" stop-color="#1e1b4b"/>
    <stop offset="38%" stop-color="#0f172a"/>
    <stop offset="100%" stop-color="#020617"/>
  </radialGradient>

  <filter id="softGlow" x="-80%" y="-80%" width="260%" height="260%">
    <feGaussianBlur stdDeviation="8" result="blur"/>
    <feMerge>
      <feMergeNode in="blur"/>
      <feMergeNode in="SourceGraphic"/>
    </feMerge>
  </filter>

  <filter id="strongGlow" x="-120%" y="-120%" width="340%" height="340%">
    <feGaussianBlur stdDeviation="14" result="blur"/>
    <feMerge>
      <feMergeNode in="blur"/>
      <feMergeNode in="SourceGraphic"/>
    </feMerge>
  </filter>

  <linearGradient id="borderGrad" x1="0" y1="0" x2="1400" y2="760">
    <stop stop-color="#38bdf8"/>
    <stop offset="0.45" stop-color="#a78bfa"/>
    <stop offset="1" stop-color="#fbbf24"/>
  </linearGradient>

  <style>
    .label {
      font-family: 'JetBrains Mono', 'Fira Code', Consolas, monospace;
      font-size: 15px;
      fill: #e0f2fe;
      letter-spacing: 0.03em;
      paint-order: stroke;
      stroke: #020617;
      stroke-width: 4px;
      stroke-linejoin: round;
    }
    .group {
      font-family: 'JetBrains Mono', 'Fira Code', Consolas, monospace;
      font-size: 12px;
      fill: #94a3b8;
      letter-spacing: 0.18em;
    }
    .edge {
      stroke-linecap: round;
      stroke-dasharray: 500;
      stroke-dashoffset: 500;
      animation: draw 3.2s ease forwards;
    }
    .node {
      transform-box: fill-box;
      transform-origin: center;
      animation: pulse 2.8s ease-in-out infinite;
    }
    .star {
      animation: twinkle 3.5s ease-in-out infinite;
      transform-box: fill-box;
      transform-origin: center;
    }
    .float {
      animation: drift 8s ease-in-out infinite;
    }
    @keyframes draw {
      to { stroke-dashoffset: 0; }
    }
    @keyframes pulse {
      0%, 100% { opacity: 0.86; transform: scale(1); }
      50% { opacity: 1; transform: scale(1.18); }
    }
    @keyframes twinkle {
      0%, 100% { opacity: 0.22; transform: scale(1); }
      50% { opacity: 0.9; transform: scale(1.45); }
    }
    @keyframes drift {
      0%, 100% { transform: translate(0, 0); }
      50% { transform: translate(10px, -8px); }
    }
  </style>
</defs>

<rect width="100%" height="100%" rx="26" fill="url(#bgNebula)"/>
<rect x="10" y="10" width="1380" height="740" rx="24" stroke="url(#borderGrad)" stroke-opacity="0.55" stroke-width="2"/>
<rect x="24" y="24" width="1352" height="712" rx="20" fill="#020617" opacity="0.38"/>

<g class="float">
  <circle cx="310" cy="175" r="180" fill="#7c3aed" opacity="0.08"/>
  <circle cx="1030" cy="510" r="210" fill="#0891b2" opacity="0.08"/>
  <circle cx="720" cy="350" r="260" fill="#c084fc" opacity="0.045"/>
</g>

<circle class="star" cx="1344" cy="149" r="1" fill="#a78bfa" opacity="0.52" style="animation-delay:0.86s"/>
<circle class="star" cx="244" cy="593" r="1" fill="#e0f2fe" opacity="0.45" style="animation-delay:0.11s"/>
<circle class="star" cx="482" cy="273" r="2.4" fill="#f8fafc" opacity="0.45" style="animation-delay:1.96s"/>
<circle class="star" cx="486" cy="494" r="2.4" fill="#a78bfa" opacity="0.29" style="animation-delay:3.04s"/>
<circle class="star" cx="900" cy="383" r="1.5" fill="#38bdf8" opacity="0.23" style="animation-delay:3.35s"/>
<circle class="star" cx="244" cy="129" r="2" fill="#38bdf8" opacity="0.20" style="animation-delay:2.97s"/>
<circle class="star" cx="123" cy="505" r="2.4" fill="#e0f2fe" opacity="0.21" style="animation-delay:3.23s"/>
<circle class="star" cx="1165" cy="335" r="2.4" fill="#a78bfa" opacity="0.59" style="animation-delay:1.27s"/>
<circle class="star" cx="177" cy="81" r="1.2" fill="#a78bfa" opacity="0.54" style="animation-delay:3.45s"/>
<circle class="star" cx="241" cy="424" r="1.5" fill="#a78bfa" opacity="0.38" style="animation-delay:2.92s"/>
<circle class="star" cx="793" cy="398" r="1.2" fill="#e0f2fe" opacity="0.49" style="animation-delay:2.46s"/>
<circle class="star" cx="1282" cy="685" r="1.2" fill="#f8fafc" opacity="0.42" style="animation-delay:0.86s"/>
<circle class="star" cx="812" cy="311" r="2.4" fill="#e0f2fe" opacity="0.26" style="animation-delay:1.13s"/>
<circle class="star" cx="504" cy="67" r="1.5" fill="#38bdf8" opacity="0.35" style="animation-delay:0.23s"/>
<circle class="star" cx="470" cy="706" r="2" fill="#f8fafc" opacity="0.35" style="animation-delay:3.20s"/>
<circle class="star" cx="327" cy="306" r="1.2" fill="#38bdf8" opacity="0.27" style="animation-delay:1.96s"/>
<circle class="star" cx="1232" cy="473" r="2.4" fill="#a78bfa" opacity="0.35" style="animation-delay:0.77s"/>
<circle class="star" cx="1078" cy="540" r="1" fill="#a78bfa" opacity="0.53" style="animation-delay:3.01s"/>
<circle class="star" cx="1320" cy="198" r="2" fill="#f8fafc" opacity="0.45" style="animation-delay:1.35s"/>
<circle class="star" cx="1118" cy="292" r="2.4" fill="#e0f2fe" opacity="0.58" style="animation-delay:0.04s"/>
<circle class="star" cx="1134" cy="308" r="1.5" fill="#f8fafc" opacity="0.21" style="animation-delay:1.52s"/>
<circle class="star" cx="41" cy="304" r="2.4" fill="#e0f2fe" opacity="0.53" style="animation-delay:1.78s"/>
<circle class="star" cx="1315" cy="340" r="2.4" fill="#a78bfa" opacity="0.45" style="animation-delay:0.53s"/>
<circle class="star" cx="1139" cy="578" r="1" fill="#e0f2fe" opacity="0.45" style="animation-delay:1.71s"/>
<circle class="star" cx="778" cy="349" r="1.2" fill="#e0f2fe" opacity="0.18" style="animation-delay:3.07s"/>
<circle class="star" cx="210" cy="532" r="1" fill="#a78bfa" opacity="0.64" style="animation-delay:1.86s"/>
<circle class="star" cx="297" cy="710" r="2" fill="#f8fafc" opacity="0.62" style="animation-delay:0.58s"/>
<circle class="star" cx="468" cy="587" r="1.2" fill="#38bdf8" opacity="0.51" style="animation-delay:1.40s"/>
<circle class="star" cx="932" cy="564" r="2" fill="#38bdf8" opacity="0.21" style="animation-delay:0.79s"/>
<circle class="star" cx="78" cy="637" r="2.4" fill="#e0f2fe" opacity="0.27" style="animation-delay:0.77s"/>
<circle class="star" cx="1327" cy="95" r="1.2" fill="#38bdf8" opacity="0.18" style="animation-delay:0.11s"/>
<circle class="star" cx="180" cy="561" r="1.2" fill="#a78bfa" opacity="0.29" style="animation-delay:1.70s"/>
<circle class="star" cx="1204" cy="625" r="2" fill="#f8fafc" opacity="0.27" style="animation-delay:1.66s"/>
<circle class="star" cx="424" cy="131" r="1" fill="#f8fafc" opacity="0.48" style="animation-delay:1.24s"/>
<circle class="star" cx="991" cy="90" r="1" fill="#e0f2fe" opacity="0.18" style="animation-delay:2.55s"/>
<circle class="star" cx="544" cy="231" r="1.2" fill="#a78bfa" opacity="0.42" style="animation-delay:0.49s"/>
<circle class="star" cx="605" cy="508" r="1.2" fill="#e0f2fe" opacity="0.59" style="animation-delay:0.26s"/>
<circle class="star" cx="138" cy="702" r="2.4" fill="#a78bfa" opacity="0.57" style="animation-delay:3.39s"/>
<circle class="star" cx="375" cy="451" r="2" fill="#e0f2fe" opacity="0.39" style="animation-delay:3.03s"/>
<circle class="star" cx="372" cy="423" r="1" fill="#f8fafc" opacity="0.64" style="animation-delay:0.93s"/>
<circle class="star" cx="619" cy="468" r="2.4" fill="#a78bfa" opacity="0.48" style="animation-delay:1.70s"/>
<circle class="star" cx="642" cy="257" r="1" fill="#38bdf8" opacity="0.44" style="animation-delay:1.90s"/>
<circle class="star" cx="152" cy="86" r="2.4" fill="#a78bfa" opacity="0.39" style="animation-delay:3.22s"/>
<circle class="star" cx="151" cy="555" r="1" fill="#e0f2fe" opacity="0.58" style="animation-delay:0.24s"/>
<circle class="star" cx="516" cy="448" r="1" fill="#e0f2fe" opacity="0.62" style="animation-delay:1.99s"/>
<circle class="star" cx="1303" cy="118" r="2" fill="#38bdf8" opacity="0.48" style="animation-delay:1.98s"/>
<circle class="star" cx="569" cy="244" r="1.5" fill="#38bdf8" opacity="0.27" style="animation-delay:1.39s"/>
<circle class="star" cx="971" cy="358" r="1" fill="#e0f2fe" opacity="0.15" style="animation-delay:2.17s"/>
<circle class="star" cx="185" cy="585" r="1.2" fill="#38bdf8" opacity="0.40" style="animation-delay:0.46s"/>
<circle class="star" cx="175" cy="285" r="1.5" fill="#38bdf8" opacity="0.29" style="animation-delay:1.53s"/>
<circle class="star" cx="1287" cy="704" r="2.4" fill="#38bdf8" opacity="0.15" style="animation-delay:2.86s"/>
<circle class="star" cx="247" cy="172" r="1.5" fill="#a78bfa" opacity="0.21" style="animation-delay:0.37s"/>
<circle class="star" cx="592" cy="323" r="2.4" fill="#38bdf8" opacity="0.26" style="animation-delay:1.20s"/>
<circle class="star" cx="1070" cy="535" r="1.5" fill="#e0f2fe" opacity="0.60" style="animation-delay:2.96s"/>
<circle class="star" cx="1334" cy="468" r="1.5" fill="#a78bfa" opacity="0.17" style="animation-delay:1.17s"/>
<circle class="star" cx="1339" cy="303" r="1.2" fill="#f8fafc" opacity="0.52" style="animation-delay:1.93s"/>
<circle class="star" cx="1183" cy="44" r="1" fill="#a78bfa" opacity="0.19" style="animation-delay:3.09s"/>
<circle class="star" cx="1152" cy="71" r="1.5" fill="#a78bfa" opacity="0.44" style="animation-delay:0.52s"/>
<circle class="star" cx="120" cy="350" r="1.5" fill="#e0f2fe" opacity="0.60" style="animation-delay:2.79s"/>
<circle class="star" cx="767" cy="250" r="1.2" fill="#f8fafc" opacity="0.48" style="animation-delay:1.24s"/>
<circle class="star" cx="1306" cy="193" r="1.2" fill="#a78bfa" opacity="0.58" style="animation-delay:3.42s"/>
<circle class="star" cx="879" cy="60" r="1.2" fill="#f8fafc" opacity="0.52" style="animation-delay:1.16s"/>
<circle class="star" cx="543" cy="308" r="1.2" fill="#e0f2fe" opacity="0.54" style="animation-delay:0.38s"/>
<circle class="star" cx="998" cy="262" r="1.2" fill="#38bdf8" opacity="0.56" style="animation-delay:1.61s"/>
<circle class="star" cx="501" cy="263" r="1" fill="#38bdf8" opacity="0.48" style="animation-delay:1.39s"/>
<circle class="star" cx="177" cy="320" r="1.5" fill="#38bdf8" opacity="0.47" style="animation-delay:1.40s"/>
<circle class="star" cx="91" cy="153" r="1.5" fill="#38bdf8" opacity="0.24" style="animation-delay:3.37s"/>
<circle class="star" cx="113" cy="146" r="2.4" fill="#38bdf8" opacity="0.37" style="animation-delay:2.55s"/>
<circle class="star" cx="928" cy="655" r="2.4" fill="#a78bfa" opacity="0.21" style="animation-delay:3.15s"/>
<circle class="star" cx="556" cy="80" r="2" fill="#a78bfa" opacity="0.15" style="animation-delay:3.24s"/>
<circle class="star" cx="780" cy="476" r="1" fill="#38bdf8" opacity="0.62" style="animation-delay:3.22s"/>
<circle class="star" cx="290" cy="342" r="2.4" fill="#f8fafc" opacity="0.30" style="animation-delay:1.43s"/>
<circle class="star" cx="640" cy="602" r="1.2" fill="#f8fafc" opacity="0.25" style="animation-delay:2.33s"/>
<circle class="star" cx="391" cy="665" r="2.4" fill="#e0f2fe" opacity="0.30" style="animation-delay:1.92s"/>
<circle class="star" cx="657" cy="328" r="1.2" fill="#38bdf8" opacity="0.36" style="animation-delay:2.03s"/>
<circle class="star" cx="987" cy="487" r="2" fill="#a78bfa" opacity="0.49" style="animation-delay:1.79s"/>
<circle class="star" cx="208" cy="325" r="2.4" fill="#e0f2fe" opacity="0.48" style="animation-delay:2.17s"/>
<circle class="star" cx="516" cy="723" r="1.5" fill="#e0f2fe" opacity="0.26" style="animation-delay:0.70s"/>
<circle class="star" cx="129" cy="285" r="2" fill="#f8fafc" opacity="0.46" style="animation-delay:2.69s"/>
<circle class="star" cx="883" cy="679" r="2.4" fill="#f8fafc" opacity="0.25" style="animation-delay:2.44s"/>
<circle class="star" cx="853" cy="284" r="1.2" fill="#e0f2fe" opacity="0.48" style="animation-delay:0.02s"/>
<circle class="star" cx="905" cy="259" r="1.2" fill="#f8fafc" opacity="0.55" style="animation-delay:2.44s"/>
<circle class="star" cx="137" cy="605" r="1.2" fill="#a78bfa" opacity="0.61" style="animation-delay:0.42s"/>
<circle class="star" cx="986" cy="718" r="2.4" fill="#f8fafc" opacity="0.64" style="animation-delay:2.08s"/>
<circle class="star" cx="1289" cy="551" r="2" fill="#a78bfa" opacity="0.57" style="animation-delay:1.92s"/>
<circle class="star" cx="1007" cy="495" r="1.5" fill="#38bdf8" opacity="0.53" style="animation-delay:2.94s"/>
<circle class="star" cx="1102" cy="531" r="1.2" fill="#38bdf8" opacity="0.29" style="animation-delay:0.27s"/>
<circle class="star" cx="515" cy="313" r="1.5" fill="#a78bfa" opacity="0.31" style="animation-delay:1.89s"/>
<circle class="star" cx="343" cy="271" r="2" fill="#e0f2fe" opacity="0.50" style="animation-delay:2.47s"/>
<circle class="star" cx="884" cy="452" r="1.5" fill="#a78bfa" opacity="0.42" style="animation-delay:1.46s"/>
<circle class="star" cx="895" cy="433" r="2.4" fill="#f8fafc" opacity="0.62" style="animation-delay:0.07s"/>
<circle class="star" cx="1011" cy="41" r="1.5" fill="#f8fafc" opacity="0.30" style="animation-delay:1.36s"/>
<circle class="star" cx="1137" cy="594" r="2.4" fill="#38bdf8" opacity="0.60" style="animation-delay:1.71s"/>
<circle class="star" cx="927" cy="532" r="1" fill="#f8fafc" opacity="0.34" style="animation-delay:2.34s"/>
<circle class="star" cx="373" cy="513" r="1.2" fill="#f8fafc" opacity="0.64" style="animation-delay:1.87s"/>
<circle class="star" cx="1247" cy="612" r="1" fill="#f8fafc" opacity="0.19" style="animation-delay:1.50s"/>
<circle class="star" cx="407" cy="86" r="1.5" fill="#38bdf8" opacity="0.34" style="animation-delay:0.74s"/>
<circle class="star" cx="726" cy="423" r="1.5" fill="#38bdf8" opacity="0.53" style="animation-delay:2.91s"/>
<circle class="star" cx="202" cy="516" r="1" fill="#38bdf8" opacity="0.52" style="animation-delay:0.18s"/>
<circle class="star" cx="494" cy="700" r="1" fill="#e0f2fe" opacity="0.54" style="animation-delay:2.28s"/>
<circle class="star" cx="541" cy="239" r="1" fill="#f8fafc" opacity="0.46" style="animation-delay:0.83s"/>
<circle class="star" cx="269" cy="612" r="1.2" fill="#38bdf8" opacity="0.38" style="animation-delay:0.90s"/>
<circle class="star" cx="378" cy="655" r="2.4" fill="#a78bfa" opacity="0.63" style="animation-delay:2.51s"/>
<circle class="star" cx="672" cy="145" r="2.4" fill="#f8fafc" opacity="0.16" style="animation-delay:1.09s"/>
<circle class="star" cx="847" cy="238" r="1" fill="#a78bfa" opacity="0.45" style="animation-delay:2.91s"/>
<circle class="star" cx="243" cy="343" r="2.4" fill="#e0f2fe" opacity="0.55" style="animation-delay:2.79s"/>
<circle class="star" cx="746" cy="580" r="2" fill="#38bdf8" opacity="0.48" style="animation-delay:0.24s"/>
<circle class="star" cx="60" cy="465" r="2" fill="#f8fafc" opacity="0.20" style="animation-delay:3.36s"/>
<circle class="star" cx="348" cy="480" r="1.2" fill="#38bdf8" opacity="0.52" style="animation-delay:3.38s"/>
<circle class="star" cx="1296" cy="586" r="2" fill="#38bdf8" opacity="0.38" style="animation-delay:2.89s"/>
<circle class="star" cx="695" cy="286" r="1" fill="#f8fafc" opacity="0.29" style="animation-delay:1.58s"/>
<circle class="star" cx="1202" cy="659" r="2" fill="#38bdf8" opacity="0.32" style="animation-delay:1.73s"/>
<circle class="star" cx="407" cy="534" r="1.2" fill="#38bdf8" opacity="0.33" style="animation-delay:0.90s"/>
<circle class="star" cx="1255" cy="317" r="2.4" fill="#e0f2fe" opacity="0.16" style="animation-delay:3.32s"/>
<circle class="star" cx="529" cy="451" r="2" fill="#f8fafc" opacity="0.43" style="animation-delay:0.84s"/>
<circle class="star" cx="1357" cy="537" r="2" fill="#a78bfa" opacity="0.55" style="animation-delay:0.33s"/>
<circle class="star" cx="863" cy="284" r="1.5" fill="#38bdf8" opacity="0.48" style="animation-delay:1.29s"/>
<circle class="star" cx="906" cy="598" r="1.5" fill="#38bdf8" opacity="0.33" style="animation-delay:1.59s"/>
<circle class="star" cx="549" cy="271" r="1" fill="#a78bfa" opacity="0.51" style="animation-delay:1.10s"/>
<circle class="star" cx="427" cy="256" r="2" fill="#38bdf8" opacity="0.29" style="animation-delay:2.06s"/>
<circle class="star" cx="240" cy="233" r="1.5" fill="#e0f2fe" opacity="0.26" style="animation-delay:0.63s"/>
<circle class="star" cx="1128" cy="164" r="1.5" fill="#38bdf8" opacity="0.17" style="animation-delay:0.19s"/>
<circle class="star" cx="293" cy="688" r="2" fill="#38bdf8" opacity="0.20" style="animation-delay:0.04s"/>
<circle class="star" cx="996" cy="525" r="2" fill="#38bdf8" opacity="0.32" style="animation-delay:3.38s"/>
<circle class="star" cx="1013" cy="151" r="1" fill="#e0f2fe" opacity="0.35" style="animation-delay:0.26s"/>
<circle class="star" cx="345" cy="187" r="2.4" fill="#a78bfa" opacity="0.62" style="animation-delay:0.30s"/>
<circle class="star" cx="277" cy="606" r="2" fill="#a78bfa" opacity="0.45" style="animation-delay:2.77s"/>
<circle class="star" cx="1105" cy="424" r="2" fill="#f8fafc" opacity="0.60" style="animation-delay:1.04s"/>
<circle class="star" cx="660" cy="617" r="2.4" fill="#e0f2fe" opacity="0.18" style="animation-delay:3.36s"/>
<circle class="star" cx="460" cy="675" r="1.2" fill="#a78bfa" opacity="0.28" style="animation-delay:0.28s"/>
<circle class="star" cx="390" cy="600" r="1" fill="#f8fafc" opacity="0.23" style="animation-delay:1.43s"/>
<circle class="star" cx="631" cy="68" r="1.2" fill="#f8fafc" opacity="0.29" style="animation-delay:0.99s"/>
<circle class="star" cx="180" cy="274" r="1.5" fill="#a78bfa" opacity="0.54" style="animation-delay:2.19s"/>
<circle class="star" cx="905" cy="152" r="2.4" fill="#38bdf8" opacity="0.26" style="animation-delay:0.52s"/>
<circle class="star" cx="326" cy="108" r="1" fill="#38bdf8" opacity="0.23" style="animation-delay:1.08s"/>
<circle class="star" cx="934" cy="162" r="2" fill="#38bdf8" opacity="0.49" style="animation-delay:2.45s"/>
<circle class="star" cx="1059" cy="587" r="2" fill="#f8fafc" opacity="0.37" style="animation-delay:2.09s"/>
<circle class="star" cx="695" cy="653" r="1.5" fill="#e0f2fe" opacity="0.16" style="animation-delay:0.80s"/>
<circle class="star" cx="586" cy="625" r="1" fill="#f8fafc" opacity="0.53" style="animation-delay:0.61s"/>
<circle class="star" cx="604" cy="220" r="2.4" fill="#e0f2fe" opacity="0.37" style="animation-delay:2.85s"/>
<circle class="star" cx="997" cy="391" r="2" fill="#a78bfa" opacity="0.32" style="animation-delay:2.35s"/>
<circle class="star" cx="710" cy="456" r="2" fill="#e0f2fe" opacity="0.29" style="animation-delay:3.31s"/>
<circle class="star" cx="966" cy="125" r="1.5" fill="#f8fafc" opacity="0.28" style="animation-delay:0.41s"/>
<circle class="star" cx="1088" cy="36" r="2.4" fill="#38bdf8" opacity="0.38" style="animation-delay:0.19s"/>
<circle class="star" cx="1310" cy="545" r="2" fill="#a78bfa" opacity="0.53" style="animation-delay:0.71s"/>
<circle class="star" cx="624" cy="483" r="2" fill="#a78bfa" opacity="0.21" style="animation-delay:3.41s"/>
<circle class="star" cx="359" cy="353" r="2.4" fill="#a78bfa" opacity="0.16" style="animation-delay:1.43s"/>
<circle class="star" cx="267" cy="507" r="1" fill="#38bdf8" opacity="0.47" style="animation-delay:0.54s"/>
<circle class="star" cx="1077" cy="314" r="2" fill="#a78bfa" opacity="0.57" style="animation-delay:3.43s"/>
<circle class="star" cx="970" cy="599" r="1.2" fill="#a78bfa" opacity="0.34" style="animation-delay:3.23s"/>
<circle class="star" cx="177" cy="317" r="2" fill="#38bdf8" opacity="0.32" style="animation-delay:2.76s"/>
<circle class="star" cx="40" cy="324" r="1.5" fill="#f8fafc" opacity="0.57" style="animation-delay:2.03s"/>
<circle class="star" cx="339" cy="492" r="2.4" fill="#f8fafc" opacity="0.39" style="animation-delay:1.16s"/>
<circle class="star" cx="967" cy="364" r="1.2" fill="#f8fafc" opacity="0.64" style="animation-delay:0.84s"/>
<circle class="star" cx="513" cy="455" r="1" fill="#f8fafc" opacity="0.31" style="animation-delay:1.66s"/>
<circle class="star" cx="825" cy="714" r="1.2" fill="#38bdf8" opacity="0.40" style="animation-delay:0.13s"/>
<circle class="star" cx="240" cy="485" r="1" fill="#a78bfa" opacity="0.41" style="animation-delay:1.60s"/>
<circle class="star" cx="874" cy="705" r="1.2" fill="#38bdf8" opacity="0.19" style="animation-delay:2.74s"/>
<circle class="star" cx="728" cy="673" r="2" fill="#f8fafc" opacity="0.47" style="animation-delay:2.98s"/>
<circle class="star" cx="683" cy="676" r="2" fill="#e0f2fe" opacity="0.59" style="animation-delay:0.13s"/>
<circle class="star" cx="515" cy="681" r="1.5" fill="#f8fafc" opacity="0.65" style="animation-delay:2.61s"/>
<circle class="star" cx="236" cy="683" r="1" fill="#e0f2fe" opacity="0.37" style="animation-delay:2.43s"/>
<circle class="star" cx="129" cy="367" r="1" fill="#a78bfa" opacity="0.30" style="animation-delay:1.31s"/>
<circle class="star" cx="535" cy="578" r="2" fill="#a78bfa" opacity="0.43" style="animation-delay:2.77s"/>
<circle class="star" cx="393" cy="115" r="2.4" fill="#a78bfa" opacity="0.59" style="animation-delay:2.17s"/>
<circle class="star" cx="1054" cy="632" r="1.2" fill="#f8fafc" opacity="0.27" style="animation-delay:2.23s"/>
<circle class="star" cx="557" cy="717" r="1" fill="#38bdf8" opacity="0.60" style="animation-delay:1.63s"/>
<circle class="star" cx="1154" cy="196" r="1" fill="#38bdf8" opacity="0.37" style="animation-delay:1.21s"/>
<circle class="star" cx="1343" cy="469" r="1.5" fill="#f8fafc" opacity="0.38" style="animation-delay:1.06s"/>
<circle class="star" cx="1024" cy="144" r="1.2" fill="#38bdf8" opacity="0.34" style="animation-delay:1.26s"/>
<circle class="star" cx="639" cy="57" r="2" fill="#e0f2fe" opacity="0.29" style="animation-delay:1.98s"/>
<circle class="star" cx="1276" cy="543" r="1.5" fill="#38bdf8" opacity="0.54" style="animation-delay:0.81s"/>
<circle class="star" cx="483" cy="686" r="1.2" fill="#a78bfa" opacity="0.46" style="animation-delay:2.37s"/>
<circle class="star" cx="1321" cy="134" r="1" fill="#38bdf8" opacity="0.30" style="animation-delay:1.54s"/>
<circle class="star" cx="304" cy="127" r="1.5" fill="#a78bfa" opacity="0.31" style="animation-delay:1.45s"/>
<circle class="star" cx="305" cy="587" r="1.5" fill="#a78bfa" opacity="0.42" style="animation-delay:3.20s"/>
<circle class="star" cx="561" cy="528" r="1.5" fill="#e0f2fe" opacity="0.52" style="animation-delay:1.19s"/>
<circle class="star" cx="994" cy="112" r="1.2" fill="#f8fafc" opacity="0.53" style="animation-delay:0.79s"/>
<circle class="star" cx="1176" cy="409" r="1" fill="#e0f2fe" opacity="0.55" style="animation-delay:0.05s"/>
<circle class="star" cx="966" cy="412" r="1.5" fill="#38bdf8" opacity="0.44" style="animation-delay:2.88s"/>
<circle class="star" cx="256" cy="274" r="2" fill="#38bdf8" opacity="0.16" style="animation-delay:3.09s"/>
<circle class="star" cx="1284" cy="261" r="1" fill="#38bdf8" opacity="0.47" style="animation-delay:1.62s"/>
<circle class="star" cx="1364" cy="453" r="1" fill="#38bdf8" opacity="0.22" style="animation-delay:3.31s"/>
<circle class="star" cx="1043" cy="153" r="1" fill="#f8fafc" opacity="0.27" style="animation-delay:1.88s"/>
<circle class="star" cx="964" cy="414" r="2.4" fill="#a78bfa" opacity="0.36" style="animation-delay:2.60s"/>
<circle class="star" cx="884" cy="705" r="1" fill="#38bdf8" opacity="0.57" style="animation-delay:2.15s"/>
<circle class="star" cx="102" cy="414" r="1.2" fill="#38bdf8" opacity="0.37" style="animation-delay:3.33s"/>
<circle class="star" cx="238" cy="411" r="2.4" fill="#e0f2fe" opacity="0.60" style="animation-delay:2.26s"/>
<circle class="star" cx="850" cy="317" r="1.2" fill="#f8fafc" opacity="0.63" style="animation-delay:3.32s"/>
<circle class="star" cx="222" cy="713" r="1.2" fill="#e0f2fe" opacity="0.47" style="animation-delay:2.09s"/>

<text x="50%" y="52" text-anchor="middle" fill="#f8fafc"
      font-family="JetBrains Mono, Fira Code, Consolas, monospace"
      font-size="28" font-weight="700" letter-spacing="0.08em">
  SKILL CONSTELLATION
</text>

<text x="50%" y="82" text-anchor="middle" fill="#94a3b8"
      font-family="JetBrains Mono, Fira Code, Consolas, monospace"
      font-size="13" letter-spacing="0.16em">
  DATA SCIENCE · MACHINE LEARNING · ANALYTICS SYSTEMS
</text>

<line x1="290" y1="250" x2="710" y2="275" stroke="#64748b" stroke-width="1" opacity="0.10"/>
<line x1="290" y1="250" x2="1090" y2="255" stroke="#64748b" stroke-width="1" opacity="0.10"/>
<line x1="710" y1="275" x2="1090" y2="255" stroke="#64748b" stroke-width="1" opacity="0.10"/>
<line x1="430" y1="595" x2="965" y2="585" stroke="#64748b" stroke-width="1" opacity="0.10"/>
<circle cx="290" cy="250" r="115" fill="#a78bfa" opacity="0.035" filter="url(#softGlow)"/>
<text class="group" x="290" y="125" text-anchor="middle">LANGUAGES</text>
<line class="edge" x1="210" y1="150" x2="120" y2="250" stroke="#a78bfa" stroke-width="2.4" opacity="0.72" filter="url(#softGlow)" style="animation-delay:0.00s"/>
<line class="edge" x1="210" y1="150" x2="330" y2="325" stroke="#a78bfa" stroke-width="2.4" opacity="0.72" filter="url(#softGlow)" style="animation-delay:0.15s"/>
<line class="edge" x1="120" y1="250" x2="230" y2="405" stroke="#a78bfa" stroke-width="2.4" opacity="0.72" filter="url(#softGlow)" style="animation-delay:0.30s"/>
<line class="edge" x1="330" y1="325" x2="230" y2="405" stroke="#a78bfa" stroke-width="2.4" opacity="0.72" filter="url(#softGlow)" style="animation-delay:0.45s"/>
<circle cx="290" cy="250" r="13" fill="#a78bfa" opacity="0.65" filter="url(#strongGlow)"/>
<circle class="node" cx="210" cy="150" r="34.199999999999996" fill="#a78bfa" opacity="0.16" filter="url(#strongGlow)" style="animation-delay:0.00s"/>
<circle cx="210" cy="150" r="17" fill="none" stroke="#a78bfa" stroke-opacity="0.32" stroke-width="1.4"/>
<circle class="node" cx="210" cy="150" r="9" fill="#a78bfa" filter="url(#strongGlow)" style="animation-delay:0.00s"/>
<circle cx="210" cy="150" r="2.9" fill="#f8fafc" opacity="0.80"/>
<text class="label" x="228" y="155" text-anchor="start">Python</text>
<circle class="node" cx="120" cy="250" r="26.599999999999998" fill="#a78bfa" opacity="0.16" filter="url(#strongGlow)" style="animation-delay:0.18s"/>
<circle cx="120" cy="250" r="15" fill="none" stroke="#a78bfa" stroke-opacity="0.32" stroke-width="1.4"/>
<circle class="node" cx="120" cy="250" r="7" fill="#a78bfa" filter="url(#strongGlow)" style="animation-delay:0.18s"/>
<circle cx="120" cy="250" r="2.5" fill="#f8fafc" opacity="0.80"/>
<text class="label" x="138" y="255" text-anchor="start">R</text>
<circle class="node" cx="330" cy="325" r="30.4" fill="#a78bfa" opacity="0.16" filter="url(#strongGlow)" style="animation-delay:0.36s"/>
<circle cx="330" cy="325" r="16" fill="none" stroke="#a78bfa" stroke-opacity="0.32" stroke-width="1.4"/>
<circle class="node" cx="330" cy="325" r="8" fill="#a78bfa" filter="url(#strongGlow)" style="animation-delay:0.36s"/>
<circle cx="330" cy="325" r="2.6" fill="#f8fafc" opacity="0.80"/>
<text class="label" x="348" y="330" text-anchor="start">SQL</text>
<circle class="node" cx="230" cy="405" r="26.599999999999998" fill="#a78bfa" opacity="0.16" filter="url(#strongGlow)" style="animation-delay:0.54s"/>
<circle cx="230" cy="405" r="15" fill="none" stroke="#a78bfa" stroke-opacity="0.32" stroke-width="1.4"/>
<circle class="node" cx="230" cy="405" r="7" fill="#a78bfa" filter="url(#strongGlow)" style="animation-delay:0.54s"/>
<circle cx="230" cy="405" r="2.5" fill="#f8fafc" opacity="0.80"/>
<text class="label" x="248" y="410" text-anchor="start">Statistics</text>
<circle cx="710" cy="275" r="115" fill="#38bdf8" opacity="0.035" filter="url(#softGlow)"/>
<text class="group" x="710" y="150" text-anchor="middle">ML &amp; STATS</text>
<line class="edge" x1="620" y1="115" x2="520" y2="260" stroke="#38bdf8" stroke-width="2.4" opacity="0.72" filter="url(#softGlow)" style="animation-delay:0.15s"/>
<line class="edge" x1="620" y1="115" x2="770" y2="235" stroke="#38bdf8" stroke-width="2.4" opacity="0.72" filter="url(#softGlow)" style="animation-delay:0.30s"/>
<line class="edge" x1="520" y1="260" x2="770" y2="235" stroke="#38bdf8" stroke-width="2.4" opacity="0.72" filter="url(#softGlow)" style="animation-delay:0.45s"/>
<line class="edge" x1="520" y1="260" x2="625" y2="410" stroke="#38bdf8" stroke-width="2.4" opacity="0.72" filter="url(#softGlow)" style="animation-delay:0.60s"/>
<line class="edge" x1="770" y1="235" x2="835" y2="390" stroke="#38bdf8" stroke-width="2.4" opacity="0.72" filter="url(#softGlow)" style="animation-delay:0.75s"/>
<line class="edge" x1="625" y1="410" x2="835" y2="390" stroke="#38bdf8" stroke-width="2.4" opacity="0.72" filter="url(#softGlow)" style="animation-delay:0.90s"/>
<circle cx="710" cy="275" r="13" fill="#38bdf8" opacity="0.65" filter="url(#strongGlow)"/>
<circle class="node" cx="620" cy="115" r="30.4" fill="#38bdf8" opacity="0.16" filter="url(#strongGlow)" style="animation-delay:0.25s"/>
<circle cx="620" cy="115" r="16" fill="none" stroke="#38bdf8" stroke-opacity="0.32" stroke-width="1.4"/>
<circle class="node" cx="620" cy="115" r="8" fill="#38bdf8" filter="url(#strongGlow)" style="animation-delay:0.25s"/>
<circle cx="620" cy="115" r="2.6" fill="#f8fafc" opacity="0.80"/>
<text class="label" x="638" y="120" text-anchor="start">scikit-learn</text>
<circle class="node" cx="520" cy="260" r="38.0" fill="#38bdf8" opacity="0.16" filter="url(#strongGlow)" style="animation-delay:0.43s"/>
<circle cx="520" cy="260" r="18" fill="none" stroke="#38bdf8" stroke-opacity="0.32" stroke-width="1.4"/>
<circle class="node" cx="520" cy="260" r="10" fill="#38bdf8" filter="url(#strongGlow)" style="animation-delay:0.43s"/>
<circle cx="520" cy="260" r="3.2" fill="#f8fafc" opacity="0.80"/>
<text class="label" x="538" y="265" text-anchor="start">Machine Learning</text>
<circle class="node" cx="770" cy="235" r="30.4" fill="#38bdf8" opacity="0.16" filter="url(#strongGlow)" style="animation-delay:0.61s"/>
<circle cx="770" cy="235" r="16" fill="none" stroke="#38bdf8" stroke-opacity="0.32" stroke-width="1.4"/>
<circle class="node" cx="770" cy="235" r="8" fill="#38bdf8" filter="url(#strongGlow)" style="animation-delay:0.61s"/>
<circle cx="770" cy="235" r="2.6" fill="#f8fafc" opacity="0.80"/>
<text class="label" x="788" y="240" text-anchor="start">Feature Eng.</text>
<circle class="node" cx="625" cy="410" r="30.4" fill="#38bdf8" opacity="0.16" filter="url(#strongGlow)" style="animation-delay:0.79s"/>
<circle cx="625" cy="410" r="16" fill="none" stroke="#38bdf8" stroke-opacity="0.32" stroke-width="1.4"/>
<circle class="node" cx="625" cy="410" r="8" fill="#38bdf8" filter="url(#strongGlow)" style="animation-delay:0.79s"/>
<circle cx="625" cy="410" r="2.6" fill="#f8fafc" opacity="0.80"/>
<text class="label" x="643" y="415" text-anchor="start">Model Interpret.</text>
<circle class="node" cx="835" cy="390" r="26.599999999999998" fill="#38bdf8" opacity="0.16" filter="url(#strongGlow)" style="animation-delay:0.97s"/>
<circle cx="835" cy="390" r="15" fill="none" stroke="#38bdf8" stroke-opacity="0.32" stroke-width="1.4"/>
<circle class="node" cx="835" cy="390" r="7" fill="#38bdf8" filter="url(#strongGlow)" style="animation-delay:0.97s"/>
<circle cx="835" cy="390" r="2.5" fill="#f8fafc" opacity="0.80"/>
<text class="label" x="853" y="395" text-anchor="start">Calibration</text>
<circle cx="1090" cy="255" r="115" fill="#34d399" opacity="0.035" filter="url(#softGlow)"/>
<text class="group" x="1090" y="130" text-anchor="middle">VISUALIZATION</text>
<line class="edge" x1="1030" y1="110" x2="1210" y2="210" stroke="#34d399" stroke-width="2.4" opacity="0.72" filter="url(#softGlow)" style="animation-delay:0.30s"/>
<line class="edge" x1="1030" y1="110" x2="1010" y2="330" stroke="#34d399" stroke-width="2.4" opacity="0.72" filter="url(#softGlow)" style="animation-delay:0.45s"/>
<line class="edge" x1="1210" y1="210" x2="1185" y2="395" stroke="#34d399" stroke-width="2.4" opacity="0.72" filter="url(#softGlow)" style="animation-delay:0.60s"/>
<line class="edge" x1="1010" y1="330" x2="1185" y2="395" stroke="#34d399" stroke-width="2.4" opacity="0.72" filter="url(#softGlow)" style="animation-delay:0.75s"/>
<circle cx="1090" cy="255" r="13" fill="#34d399" opacity="0.65" filter="url(#strongGlow)"/>
<circle class="node" cx="1030" cy="110" r="30.4" fill="#34d399" opacity="0.16" filter="url(#strongGlow)" style="animation-delay:0.50s"/>
<circle cx="1030" cy="110" r="16" fill="none" stroke="#34d399" stroke-opacity="0.32" stroke-width="1.4"/>
<circle class="node" cx="1030" cy="110" r="8" fill="#34d399" filter="url(#strongGlow)" style="animation-delay:0.50s"/>
<circle cx="1030" cy="110" r="2.6" fill="#f8fafc" opacity="0.80"/>
<text class="label" x="1048" y="115" text-anchor="start">Power BI</text>
<circle class="node" cx="1210" cy="210" r="30.4" fill="#34d399" opacity="0.16" filter="url(#strongGlow)" style="animation-delay:0.68s"/>
<circle cx="1210" cy="210" r="16" fill="none" stroke="#34d399" stroke-opacity="0.32" stroke-width="1.4"/>
<circle class="node" cx="1210" cy="210" r="8" fill="#34d399" filter="url(#strongGlow)" style="animation-delay:0.68s"/>
<circle cx="1210" cy="210" r="2.6" fill="#f8fafc" opacity="0.80"/>
<text class="label" x="1192" y="215" text-anchor="end">Tableau</text>
<circle class="node" cx="1010" cy="330" r="26.599999999999998" fill="#34d399" opacity="0.16" filter="url(#strongGlow)" style="animation-delay:0.86s"/>
<circle cx="1010" cy="330" r="15" fill="none" stroke="#34d399" stroke-opacity="0.32" stroke-width="1.4"/>
<circle class="node" cx="1010" cy="330" r="7" fill="#34d399" filter="url(#strongGlow)" style="animation-delay:0.86s"/>
<circle cx="1010" cy="330" r="2.5" fill="#f8fafc" opacity="0.80"/>
<text class="label" x="1028" y="335" text-anchor="start">Dashboard Design</text>
<circle class="node" cx="1185" cy="395" r="26.599999999999998" fill="#34d399" opacity="0.16" filter="url(#strongGlow)" style="animation-delay:1.04s"/>
<circle cx="1185" cy="395" r="15" fill="none" stroke="#34d399" stroke-opacity="0.32" stroke-width="1.4"/>
<circle class="node" cx="1185" cy="395" r="7" fill="#34d399" filter="url(#strongGlow)" style="animation-delay:1.04s"/>
<circle cx="1185" cy="395" r="2.5" fill="#f8fafc" opacity="0.80"/>
<text class="label" x="1167" y="400" text-anchor="end">Data Storytelling</text>
<circle cx="430" cy="595" r="115" fill="#fb923c" opacity="0.035" filter="url(#softGlow)"/>
<text class="group" x="430" y="470" text-anchor="middle">DATA ENGINEERING</text>
<line class="edge" x1="380" y1="510" x2="250" y2="610" stroke="#fb923c" stroke-width="2.4" opacity="0.72" filter="url(#softGlow)" style="animation-delay:0.45s"/>
<line class="edge" x1="380" y1="510" x2="500" y2="665" stroke="#fb923c" stroke-width="2.4" opacity="0.72" filter="url(#softGlow)" style="animation-delay:0.60s"/>
<line class="edge" x1="380" y1="510" x2="545" y2="555" stroke="#fb923c" stroke-width="2.4" opacity="0.72" filter="url(#softGlow)" style="animation-delay:0.75s"/>
<line class="edge" x1="500" y1="665" x2="545" y2="555" stroke="#fb923c" stroke-width="2.4" opacity="0.72" filter="url(#softGlow)" style="animation-delay:0.90s"/>
<circle cx="430" cy="595" r="13" fill="#fb923c" opacity="0.65" filter="url(#strongGlow)"/>
<circle class="node" cx="380" cy="510" r="30.4" fill="#fb923c" opacity="0.16" filter="url(#strongGlow)" style="animation-delay:0.75s"/>
<circle cx="380" cy="510" r="16" fill="none" stroke="#fb923c" stroke-opacity="0.32" stroke-width="1.4"/>
<circle class="node" cx="380" cy="510" r="8" fill="#fb923c" filter="url(#strongGlow)" style="animation-delay:0.75s"/>
<circle cx="380" cy="510" r="2.6" fill="#f8fafc" opacity="0.80"/>
<text class="label" x="398" y="515" text-anchor="start">Pandas</text>
<circle class="node" cx="250" cy="610" r="26.599999999999998" fill="#fb923c" opacity="0.16" filter="url(#strongGlow)" style="animation-delay:0.93s"/>
<circle cx="250" cy="610" r="15" fill="none" stroke="#fb923c" stroke-opacity="0.32" stroke-width="1.4"/>
<circle class="node" cx="250" cy="610" r="7" fill="#fb923c" filter="url(#strongGlow)" style="animation-delay:0.93s"/>
<circle cx="250" cy="610" r="2.5" fill="#f8fafc" opacity="0.80"/>
<text class="label" x="268" y="615" text-anchor="start">NumPy</text>
<circle class="node" cx="500" cy="665" r="26.599999999999998" fill="#fb923c" opacity="0.16" filter="url(#strongGlow)" style="animation-delay:1.11s"/>
<circle cx="500" cy="665" r="15" fill="none" stroke="#fb923c" stroke-opacity="0.32" stroke-width="1.4"/>
<circle class="node" cx="500" cy="665" r="7" fill="#fb923c" filter="url(#strongGlow)" style="animation-delay:1.11s"/>
<circle cx="500" cy="665" r="2.5" fill="#f8fafc" opacity="0.80"/>
<text class="label" x="518" y="670" text-anchor="start">Data Cleaning</text>
<circle class="node" cx="545" cy="555" r="26.599999999999998" fill="#fb923c" opacity="0.16" filter="url(#strongGlow)" style="animation-delay:1.29s"/>
<circle cx="545" cy="555" r="15" fill="none" stroke="#fb923c" stroke-opacity="0.32" stroke-width="1.4"/>
<circle class="node" cx="545" cy="555" r="7" fill="#fb923c" filter="url(#strongGlow)" style="animation-delay:1.29s"/>
<circle cx="545" cy="555" r="2.5" fill="#f8fafc" opacity="0.80"/>
<text class="label" x="563" y="560" text-anchor="start">EDA</text>
<circle cx="965" cy="585" r="115" fill="#f472b6" opacity="0.035" filter="url(#softGlow)"/>
<text class="group" x="965" y="460" text-anchor="middle">ANALYTICS</text>
<line class="edge" x1="875" y1="510" x2="1065" y2="500" stroke="#f472b6" stroke-width="2.4" opacity="0.72" filter="url(#softGlow)" style="animation-delay:0.60s"/>
<line class="edge" x1="875" y1="510" x2="850" y2="665" stroke="#f472b6" stroke-width="2.4" opacity="0.72" filter="url(#softGlow)" style="animation-delay:0.75s"/>
<line class="edge" x1="1065" y1="500" x2="1115" y2="650" stroke="#f472b6" stroke-width="2.4" opacity="0.72" filter="url(#softGlow)" style="animation-delay:0.90s"/>
<line class="edge" x1="850" y1="665" x2="1115" y2="650" stroke="#f472b6" stroke-width="2.4" opacity="0.72" filter="url(#softGlow)" style="animation-delay:1.05s"/>
<circle cx="965" cy="585" r="13" fill="#f472b6" opacity="0.65" filter="url(#strongGlow)"/>
<circle class="node" cx="875" cy="510" r="34.199999999999996" fill="#f472b6" opacity="0.16" filter="url(#strongGlow)" style="animation-delay:1.00s"/>
<circle cx="875" cy="510" r="17" fill="none" stroke="#f472b6" stroke-opacity="0.32" stroke-width="1.4"/>
<circle class="node" cx="875" cy="510" r="9" fill="#f472b6" filter="url(#strongGlow)" style="animation-delay:1.00s"/>
<circle cx="875" cy="510" r="2.9" fill="#f8fafc" opacity="0.80"/>
<text class="label" x="893" y="515" text-anchor="start">Streamlit</text>
<circle class="node" cx="1065" cy="500" r="30.4" fill="#f472b6" opacity="0.16" filter="url(#strongGlow)" style="animation-delay:1.18s"/>
<circle cx="1065" cy="500" r="16" fill="none" stroke="#f472b6" stroke-opacity="0.32" stroke-width="1.4"/>
<circle class="node" cx="1065" cy="500" r="8" fill="#f472b6" filter="url(#strongGlow)" style="animation-delay:1.18s"/>
<circle cx="1065" cy="500" r="2.6" fill="#f8fafc" opacity="0.80"/>
<text class="label" x="1083" y="505" text-anchor="start">Interpretable AI</text>
<circle class="node" cx="850" cy="665" r="30.4" fill="#f472b6" opacity="0.16" filter="url(#strongGlow)" style="animation-delay:1.36s"/>
<circle cx="850" cy="665" r="16" fill="none" stroke="#f472b6" stroke-opacity="0.32" stroke-width="1.4"/>
<circle class="node" cx="850" cy="665" r="8" fill="#f472b6" filter="url(#strongGlow)" style="animation-delay:1.36s"/>
<circle cx="850" cy="665" r="2.6" fill="#f8fafc" opacity="0.80"/>
<text class="label" x="868" y="670" text-anchor="start">Decision Support</text>
<circle class="node" cx="1115" cy="650" r="26.599999999999998" fill="#f472b6" opacity="0.16" filter="url(#strongGlow)" style="animation-delay:1.54s"/>
<circle cx="1115" cy="650" r="15" fill="none" stroke="#f472b6" stroke-opacity="0.32" stroke-width="1.4"/>
<circle class="node" cx="1115" cy="650" r="7" fill="#f472b6" filter="url(#strongGlow)" style="animation-delay:1.54s"/>
<circle cx="1115" cy="650" r="2.5" fill="#f8fafc" opacity="0.80"/>
<text class="label" x="1133" y="655" text-anchor="start">Analytics Eng.</text>
<rect class="star" x="352" y="705" width="3" height="3" fill="#f472b6" opacity="0.28" rx="1"/>
<rect class="star" x="346" y="228" width="5" height="5" fill="#f472b6" opacity="0.28" rx="1"/>
<rect class="star" x="407" y="207" width="5" height="5" fill="#38bdf8" opacity="0.28" rx="1"/>
<rect class="star" x="319" y="110" width="4" height="4" fill="#a78bfa" opacity="0.28" rx="1"/>
<rect class="star" x="1255" y="426" width="3" height="3" fill="#a78bfa" opacity="0.28" rx="1"/>
<rect class="star" x="593" y="148" width="3" height="3" fill="#fbbf24" opacity="0.28" rx="1"/>
<rect class="star" x="1127" y="211" width="5" height="5" fill="#38bdf8" opacity="0.28" rx="1"/>
<rect class="star" x="1025" y="554" width="4" height="4" fill="#38bdf8" opacity="0.28" rx="1"/>
<rect class="star" x="975" y="610" width="3" height="3" fill="#38bdf8" opacity="0.28" rx="1"/>
<rect class="star" x="1117" y="403" width="4" height="4" fill="#38bdf8" opacity="0.28" rx="1"/>
<rect class="star" x="174" y="585" width="4" height="4" fill="#fbbf24" opacity="0.28" rx="1"/>
<rect class="star" x="271" y="597" width="5" height="5" fill="#fbbf24" opacity="0.28" rx="1"/>
<rect class="star" x="200" y="177" width="4" height="4" fill="#a78bfa" opacity="0.28" rx="1"/>
<rect class="star" x="184" y="224" width="4" height="4" fill="#f472b6" opacity="0.28" rx="1"/>
<rect class="star" x="830" y="638" width="4" height="4" fill="#fbbf24" opacity="0.28" rx="1"/>
<rect class="star" x="1085" y="535" width="3" height="3" fill="#38bdf8" opacity="0.28" rx="1"/>
<rect class="star" x="1179" y="315" width="4" height="4" fill="#fbbf24" opacity="0.28" rx="1"/>
<rect class="star" x="517" y="518" width="4" height="4" fill="#fbbf24" opacity="0.28" rx="1"/>
<rect class="star" x="866" y="520" width="5" height="5" fill="#38bdf8" opacity="0.28" rx="1"/>
<rect class="star" x="690" y="532" width="4" height="4" fill="#f472b6" opacity="0.28" rx="1"/>
<rect class="star" x="816" y="251" width="5" height="5" fill="#fbbf24" opacity="0.28" rx="1"/>
<rect class="star" x="187" y="188" width="3" height="3" fill="#38bdf8" opacity="0.28" rx="1"/>
<rect class="star" x="934" y="193" width="5" height="5" fill="#f472b6" opacity="0.28" rx="1"/>
<rect class="star" x="316" y="664" width="3" height="3" fill="#f472b6" opacity="0.28" rx="1"/>
<rect class="star" x="300" y="515" width="4" height="4" fill="#fbbf24" opacity="0.28" rx="1"/>
<rect class="star" x="155" y="389" width="5" height="5" fill="#f472b6" opacity="0.28" rx="1"/>
<rect class="star" x="770" y="201" width="5" height="5" fill="#a78bfa" opacity="0.28" rx="1"/>
<rect class="star" x="366" y="588" width="3" height="3" fill="#38bdf8" opacity="0.28" rx="1"/>
<rect class="star" x="767" y="664" width="4" height="4" fill="#38bdf8" opacity="0.28" rx="1"/>
<rect class="star" x="620" y="682" width="3" height="3" fill="#fbbf24" opacity="0.28" rx="1"/>
<rect class="star" x="1198" y="665" width="3" height="3" fill="#f472b6" opacity="0.28" rx="1"/>
<rect class="star" x="109" y="279" width="4" height="4" fill="#f472b6" opacity="0.28" rx="1"/>
<rect class="star" x="745" y="454" width="3" height="3" fill="#a78bfa" opacity="0.28" rx="1"/>
<rect class="star" x="343" y="674" width="5" height="5" fill="#fbbf24" opacity="0.28" rx="1"/>
<rect class="star" x="192" y="240" width="5" height="5" fill="#38bdf8" opacity="0.28" rx="1"/>
<rect class="star" x="237" y="638" width="3" height="3" fill="#fbbf24" opacity="0.28" rx="1"/>
<circle cx="190" cy="718" r="5" fill="#a78bfa" filter="url(#softGlow)"/>
<text x="203" y="722" fill="#cbd5e1" font-family="JetBrains Mono, Fira Code, Consolas, monospace" font-size="11">LANGUAGES</text>
<circle cx="425" cy="718" r="5" fill="#38bdf8" filter="url(#softGlow)"/>
<text x="438" y="722" fill="#cbd5e1" font-family="JetBrains Mono, Fira Code, Consolas, monospace" font-size="11">ML &amp; STATS</text>
<circle cx="660" cy="718" r="5" fill="#34d399" filter="url(#softGlow)"/>
<text x="673" y="722" fill="#cbd5e1" font-family="JetBrains Mono, Fira Code, Consolas, monospace" font-size="11">VISUALIZATION</text>
<circle cx="895" cy="718" r="5" fill="#fb923c" filter="url(#softGlow)"/>
<text x="908" y="722" fill="#cbd5e1" font-family="JetBrains Mono, Fira Code, Consolas, monospace" font-size="11">DATA ENGINEERING</text>
<circle cx="1130" cy="718" r="5" fill="#f472b6" filter="url(#softGlow)"/>
<text x="1143" y="722" fill="#cbd5e1" font-family="JetBrains Mono, Fira Code, Consolas, monospace" font-size="11">ANALYTICS</text>
</svg>