<?xml version="1.0" encoding="utf-8" ?>
<svg baseProfile="full" height="800" version="1.1" width="1400" xmlns="http://www.w3.org/2000/svg" xmlns:ev="http://www.w3.org/2001/xml-events" xmlns:xlink="http://www.w3.org/1999/xlink"><defs /><rect fill="#020617" height="100%" width="100%" x="0" y="0" /><circle cx="535" cy="290" fill="#8BE9FD" opacity="0.4710101771514801" r="5" /><circle cx="58" cy="147" fill="#8BE9FD" opacity="0.31020309675098706" r="5" /><circle cx="99" cy="677" fill="#8BE9FD" opacity="0.17616206393995265" r="3" /><circle cx="466" cy="586" fill="#8BE9FD" opacity="0.1932640554704934" r="4" /><circle cx="637" cy="185" fill="#8BE9FD" opacity="0.3707584643904416" r="4" /><circle cx="1028" cy="140" fill="#8BE9FD" opacity="0.33772511674118505" r="3" /><circle cx="1077" cy="312" fill="#8BE9FD" opacity="0.35359059761351885" r="3" /><circle cx="737" cy="22" fill="#8BE9FD" opacity="0.2849420656953142" r="2" /><circle cx="1221" cy="616" fill="#8BE9FD" opacity="0.14710576301891304" r="5" /><circle cx="938" cy="112" fill="#8BE9FD" opacity="0.19007784014385362" r="4" /><circle cx="892" cy="379" fill="#8BE9FD" opacity="0.1618245737441152" r="2" /><circle cx="1098" cy="166" fill="#8BE9FD" opacity="0.487062939978417" r="4" /><circle cx="451" cy="466" fill="#8BE9FD" opacity="0.34745361902852806" r="2" /><circle cx="1246" cy="683" fill="#8BE9FD" opacity="0.29352903998204083" r="5" /><circle cx="592" cy="683" fill="#8BE9FD" opacity="0.30710487756568355" r="5" /><circle cx="385" cy="54" fill="#8BE9FD" opacity="0.45037556298024195" r="3" /><circle cx="1094" cy="663" fill="#8BE9FD" opacity="0.49645775701439165" r="4" /><circle cx="1001" cy="548" fill="#8BE9FD" opacity="0.3293746752449536" r="4" /><circle cx="1317" cy="449" fill="#8BE9FD" opacity="0.3007479857759757" r="4" /><circle cx="1281" cy="125" fill="#8BE9FD" opacity="0.37272624414184397" r="2" /><circle cx="27" cy="201" fill="#8BE9FD" opacity="0.25224057166124103" r="5" /><circle cx="1020" cy="315" fill="#8BE9FD" opacity="0.320514672628182" r="3" /><circle cx="617" cy="700" fill="#8BE9FD" opacity="0.12720698692450477" r="3" /><circle cx="1037" cy="5" fill="#8BE9FD" opacity="0.4499499800997515" r="3" /><circle cx="188" cy="422" fill="#8BE9FD" opacity="0.2982186534925273" r="2" /><circle cx="506" cy="460" fill="#8BE9FD" opacity="0.42513448560047207" r="4" /><circle cx="654" cy="285" fill="#8BE9FD" opacity="0.31761068352190513" r="2" /><circle cx="1351" cy="119" fill="#8BE9FD" opacity="0.2887975791052917" r="5" /><circle cx="883" cy="389" fill="#8BE9FD" opacity="0.31228622683615337" r="2" /><circle cx="769" cy="194" fill="#8BE9FD" opacity="0.16986599132312757" r="3" /><circle cx="456" cy="54" fill="#8BE9FD" opacity="0.17330234053653915" r="3" /><circle cx="733" cy="557" fill="#8BE9FD" opacity="0.39777696636423643" r="2" /><circle cx="1200" cy="651" fill="#8BE9FD" opacity="0.3435213386255178" r="2" /><circle cx="804" cy="13" fill="#8BE9FD" opacity="0.48309167150647947" r="2" /><circle cx="385" cy="574" fill="#8BE9FD" opacity="0.14319977576821846" r="5" /><circle cx="307" cy="418" fill="#8BE9FD" opacity="0.22876447425084218" r="5" /><circle cx="1059" cy="175" fill="#8BE9FD" opacity="0.38374490249323934" r="4" /><circle cx="205" cy="373" fill="#8BE9FD" opacity="0.13109126417328476" r="2" /><circle cx="927" cy="223" fill="#8BE9FD" opacity="0.2468420006421412" r="2" /><circle cx="315" cy="676" fill="#8BE9FD" opacity="0.44781535830256913" r="3" /><circle cx="700" cy="400" fill="#E2E8F0" opacity="0.9" r="40" /><text fill="#020617" font-family="Arial" font-size="20px" x="662" y="405">COSMOS</text><line opacity="0.7" stroke="#38BDF8" stroke-width="4" x1="700" x2="950.0" y1="400" y2="400.0" /><circle cx="950.0" cy="400.0" fill="#38BDF8" r="22" /><circle cx="950.0" cy="400.0" fill="#38BDF8" opacity="0.15" r="38" /><text fill="#E2E8F0" font-family="Arial" font-size="20px" x="980.0" y="405.0">Python</text><line opacity="0.7" stroke="#C084FC" stroke-width="4" x1="700" x2="876.776695296637" y1="400" y2="576.7766952966368" /><circle cx="876.776695296637" cy="576.7766952966368" fill="#C084FC" r="22" /><circle cx="876.776695296637" cy="576.7766952966368" fill="#C084FC" opacity="0.15" r="38" /><text fill="#E2E8F0" font-family="Arial" font-size="20px" x="906.776695296637" y="581.7766952966368">R</text><line opacity="0.7" stroke="#FBBF24" stroke-width="4" x1="700" x2="700.0" y1="400" y2="650.0" /><circle cx="700.0" cy="650.0" fill="#FBBF24" r="22" /><circle cx="700.0" cy="650.0" fill="#FBBF24" opacity="0.15" r="38" /><text fill="#E2E8F0" font-family="Arial" font-size="20px" x="730.0" y="655.0">SQL</text><line opacity="0.7" stroke="#F472B6" stroke-width="4" x1="700" x2="523.2233047033632" y1="400" y2="576.776695296637" /><circle cx="523.2233047033632" cy="576.776695296637" fill="#F472B6" r="22" /><circle cx="523.2233047033632" cy="576.776695296637" fill="#F472B6" opacity="0.15" r="38" /><text fill="#E2E8F0" font-family="Arial" font-size="20px" x="553.2233047033632" y="581.776695296637">Machine Learning</text><line opacity="0.7" stroke="#22D3EE" stroke-width="4" x1="700" x2="450.0" y1="400" y2="400.00000000000006" /><circle cx="450.0" cy="400.00000000000006" fill="#22D3EE" r="22" /><circle cx="450.0" cy="400.00000000000006" fill="#22D3EE" opacity="0.15" r="38" /><text fill="#E2E8F0" font-family="Arial" font-size="20px" x="480.0" y="405.00000000000006">Statistics</text><line opacity="0.7" stroke="#F43F5E" stroke-width="4" x1="700" x2="523.223304703363" y1="400" y2="223.22330470336314" /><circle cx="523.223304703363" cy="223.22330470336314" fill="#F43F5E" r="22" /><circle cx="523.223304703363" cy="223.22330470336314" fill="#F43F5E" opacity="0.15" r="38" /><text fill="#E2E8F0" font-family="Arial" font-size="20px" x="553.223304703363" y="228.22330470336314">Streamlit</text><line opacity="0.7" stroke="#60A5FA" stroke-width="4" x1="700" x2="700.0" y1="400" y2="150.0" /><circle cx="700.0" cy="150.0" fill="#60A5FA" r="22" /><circle cx="700.0" cy="150.0" fill="#60A5FA" opacity="0.15" r="38" /><text fill="#E2E8F0" font-family="Arial" font-size="20px" x="730.0" y="155.0">Power BI</text><line opacity="0.7" stroke="#FACC15" stroke-width="4" x1="700" x2="876.7766952966368" y1="400" y2="223.22330470336308" /><circle cx="876.7766952966368" cy="223.22330470336308" fill="#FACC15" r="22" /><circle cx="876.7766952966368" cy="223.22330470336308" fill="#FACC15" opacity="0.15" r="38" /><text fill="#E2E8F0" font-family="Arial" font-size="20px" x="906.7766952966368" y="228.22330470336308">Tableau</text></svg>